:FULLY-SPECIFIED
:FORCE-ALL-JOINTS-BE-3DOF
:DEGREES
476
root 3.58971 16.265 -7.12725 3.3272 44.0368 -10.8405
lfemur -47.0509 15.0004 -19.5444
ltibia 50.0265 -0 0
lfoot -17.6216 -1.39866 -0.0405775
ltoes 14.2007 -0 0
rfemur -1.60056 -2.34311 12.5701
rtibia 37.1893 -0 0
rfoot 26.2585 -12.2446 -0.0223053
rtoes -41.6274 0 0
lowerback -0.289059 -0.0136808 4.79147
upperback -0.919431 0.0283143 2.08665
thorax -0.783259 -0.00875154 -0.523887
lowerneck -7.34703 -4.45984 1.9413
upperneck 2.73251 -6.18207 0.566605
head 2.07287 -3.0288 -0.414113
lclavicle -2.14707e-14 -1.16088e-14 0
lhumerus -42.4837 -24.0894 98.8194
lradius 46.4773 -0 0
lwrist 0.437731 0 0
lhand -21.1362 -12.2987 0.0355992
lfingers 7.12502 0 0
lthumb 2.58926 14.5002 0.0291358
rclavicle -2.14707e-14 -1.16088e-14 0
rhumerus -50.7023 -3.4115 -73.1299
rradius 55.2644 -0 0
rwrist 9.66453 0 0
rhand -28.3625 -26.806 -0.0729842
rfingers 7.12502 0 0
rthumb -4.39392 -54.2639 -0.0894406
477
root 3.66922 16.2873 -7.08111 3.11037 42.9654 -10.2822
lfemur -45.4798 14.5468 -19.076
ltibia 48.2503 -0 0
lfoot -16.9147 -1.26399 -0.0433113
ltoes 13.9417 -0 0
rfemur -1.30854 -2.24796 12.1837
rtibia 35.7433 -0 0
rfoot 25.7886 -11.8491 -0.0216699
rtoes -40.2458 0 0
lowerback -0.34464 -0.0272753 4.64042
upperback -0.906373 0.00582431 2.03436
thorax -0.740133 -0.0194964 -0.491459
lowerneck -7.08036 -4.34182 1.83639
upperneck 2.6613 -6.01359 0.546523
head 2.00555 -2.94634 -0.395899
lclavicle -1.86878e-14 -1.08503e-14 0
lhumerus -40.9199 -24.1491 96.1237
lradius 44.7907 -0 0
lwrist 0.327489 0 0
lhand -20.4694 -12.0199 0.0247229
lfingers 7.12502 0 0
lthumb 2.39338 13.7958 0.0186359
rclavicle -1.86878e-14 -1.08503e-14 0
rhumerus -48.9952 -3.32066 -70.6905
rradius 53.3986 -0 0
rwrist 9.21422 0 0
rhand -27.2792 -25.8207 -0.0583187
rfingers 7.12502 0 0
rthumb -4.1905 -52.3929 -0.0724273
478
root 3.74873 16.3096 -7.03496 2.94213 42.3104 -9.8536
lfemur -44.2569 14.1375 -18.7667
ltibia 46.8821 -0 0
lfoot -16.3911 -1.1538 -0.0458992
ltoes 13.8049 -0 0
rfemur -1.17429 -2.16353 11.8996
rtibia 34.7667 -0 0
rfoot 25.4879 -11.5078 -0.0271337
rtoes -39.1303 0 0
lowerback -0.38606 -0.0413184 4.51751
upperback -0.897908 -0.0160317 1.99485
thorax -0.709511 -0.0300508 -0.461732
lowerneck -6.88724 -4.27296 1.7454
upperneck 2.62076 -5.91267 0.53612
head 1.96083 -2.89703 -0.380242
lclavicle -1.5905e-14 -1.00919e-14 0
lhumerus -39.7749 -24.1766 94.0191
lradius 43.5382 -0 0
lwrist 0.244794 0 0
lhand -19.9189 -11.8044 0.0230374
lfingers 7.12502 0 0
lthumb 2.30374 13.281 0.0159401
rclavicle -1.5905e-14 -1.00919e-14 0
rhumerus -47.6962 -3.19032 -68.8327
rradius 52.0198 -0 0
rwrist 8.89576 0 0
rhand -26.4401 -25.0722 -0.0429052
rfingers 7.12502 0 0
rthumb -4.00551 -50.9616 -0.0542363
479
root 3.82824 16.332 -6.98882 2.83012 42.1953 -9.57527
lfemur -43.4889 13.788 -18.6597
ltibia 46.0459 -0 0
lfoot -16.0918 -1.07135 -0.0483726
ltoes 13.8246 -0 0
rfemur -1.2269 -2.09261 11.7427
rtibia 34.3785 -0 0
rfoot 25.4083 -11.2344 -0.0408472
rtoes -38.3605 0 0
lowerback -0.412022 -0.0562672 4.42968
upperback -0.895622 -0.0376359 1.97138
thorax -0.693748 -0.0406327 -0.43522
lowerneck -6.78426 -4.26508 1.67094
upperneck 2.61789 -5.89545 0.537506
head 1.9438 -2.88876 -0.367656
lclavicle -1.31222e-14 -9.3334e-15 0
lhumerus -39.1585 -24.201 92.8411
lradius 42.8435 -0 0
lwrist 0.193725 0 0
lhand -19.5158 -11.6707 0.0327292
lfingers 7.12502 0 0
lthumb 2.34133 12.9959 0.0229665
rclavicle -1.31222e-14 -9.3334e-15 0
rhumerus -46.9343 -3.02153 -67.7823
rradius 51.2781 -0 0
rwrist 8.73804 0 0
rhand -25.9084 -24.6199 -0.0270038
rfingers 7.12502 0 0
rthumb -3.84493 -50.1121 -0.0353873
